{
    "asset": {
        "version": "2.0",
        "generator": "THREE.GLTFExporter"
    },
    "scenes": [
        {
            "nodes": [
                0,
                1,
                2,
                3,
                4
            ]
        }
    ],
    "scene": 0,
    "nodes": [
        {
            "matrix": [
                1,
                0,
                0,
                0,
                0,
                1,
                0,
                0,
                0,
                0,
                1,
                0,
                0,
                1,
                0,
                1
            ],
            "extensions": {
                "KHR_lights_punctual": {
                    "light": 0
                }
            }
        },
        {
            "mesh": 0
        },
        {
            "mesh": 1
        },
        {
            "mesh": 2
        },
        {
            "mesh": 3
        }
    ],
    "extensions": {
        "KHR_lights_punctual": {
            "lights": [
                {
                    "color": [
                        1,
                        1,
                        1
                    ],
                    "intensity": 1,
                    "type": "directional"
                }
            ]
        }
    },
    "bufferViews": [
        {
            "buffer": 0,
            "byteOffset": 0,
            "byteLength": 73920,
            "target": 34962,
            "byteStride": 12
        },
        {
            "buffer": 0,
            "byteOffset": 73920,
            "byteLength": 73920,
            "target": 34962,
            "byteStride": 12
        },
        {
            "buffer": 0,
            "byteOffset": 147840,
            "byteLength": 146604,
            "target": 34963
        },
        {
            "buffer": 0,
            "byteOffset": 294444,
            "byteLength": 73584,
            "target": 34962,
            "byteStride": 12
        },
        {
            "buffer": 0,
            "byteOffset": 368028,
            "byteLength": 73584,
            "target": 34962,
            "byteStride": 12
        },
        {
            "buffer": 0,
            "byteOffset": 441612,
            "byteLength": 146316,
            "target": 34963
        },
        {
            "buffer": 0,
            "byteOffset": 587928,
            "byteLength": 72516,
            "target": 34962,
            "byteStride": 12
        },
        {
            "buffer": 0,
            "byteOffset": 660444,
            "byteLength": 72516,
            "target": 34962,
            "byteStride": 12
        },
        {
            "buffer": 0,
            "byteOffset": 732960,
            "byteLength": 144648,
            "target": 34963
        },
        {
            "buffer": 0,
            "byteOffset": 877608,
            "byteLength": 72768,
            "target": 34962,
            "byteStride": 12
        },
        {
            "buffer": 0,
            "byteOffset": 950376,
            "byteLength": 72768,
            "target": 34962,
            "byteStride": 12
        },
        {
            "buffer": 0,
            "byteOffset": 1023144,
            "byteLength": 145428,
            "target": 34963
        }
    ],
    "buffers": [
        {
            "byteLength": 1168572,
            "uri": "data:application/octet-stream;base64,"
        }
    ],
    "accessors": [
        {
            "bufferView": 0,
            "componentType": 5126,
            "count": 6160,
            "max": [
                21.602615356445312,
                108.38035583496094,
                259.057861328125
            ],
            "min": [
                -119.3960952758789,
                -27.59918212890625,
                180.18777465820312
            ],
            "type": "VEC3"
        },
        {
            "bufferView": 1,
            "componentType": 5126,
            "count": 6160,
            "max": [
                0.9993556141853333,
                0.9999527335166931,
                0.969122052192688
            ],
            "min": [
                -0.9999174475669861,
                -0.9998937845230103,
                -0.9998810887336731
            ],
            "type": "VEC3"
        },
        {
            "bufferView": 2,
            "componentType": 5125,
            "count": 36651,
            "max": [
                6159
            ],
            "min": [
                0
            ],
            "type": "SCALAR"
        },
        {
            "bufferView": 3,
            "componentType": 5126,
            "count": 6132,
            "max": [
                22.330425262451172,
                108.25411987304688,
                260.80743408203125
            ],
            "min": [
                -118.45098114013672,
                -27.788803100585938,
                182.49551391601562
            ],
            "type": "VEC3"
        },
        {
            "bufferView": 4,
            "componentType": 5126,
            "count": 6132,
            "max": [
                0.9995646476745605,
                0.9995947480201721,
                0.9978740215301514
            ],
            "min": [
                -0.9994697570800781,
                -0.9994773864746094,
                -0.9994810819625854
            ],
            "type": "VEC3"
        },
        {
            "bufferView": 5,
            "componentType": 5125,
            "count": 36579,
            "max": [
                6131
            ],
            "min": [
                0
            ],
            "type": "SCALAR"
        },
        {
            "bufferView": 6,
            "componentType": 5126,
            "count": 6043,
            "max": [
                22.544649124145508,
                105.97639465332031,
                262.20172119140625
            ],
            "min": [
                -118.17137145996094,
                -27.34925651550293,
                182.21368408203125
            ],
            "type": "VEC3"
        },
        {
            "bufferView": 7,
            "componentType": 5126,
            "count": 6043,
            "max": [
                0.9999442100524902,
                0.9996484518051147,
                0.9995794296264648
            ],
            "min": [
                -0.9989134073257446,
                -0.9995830655097961,
                -0.999931812286377
            ],
            "type": "VEC3"
        },
        {
            "bufferView": 8,
            "componentType": 5125,
            "count": 36162,
            "max": [
                6042
            ],
            "min": [
                0
            ],
            "type": "SCALAR"
        },
        {
            "bufferView": 9,
            "componentType": 5126,
            "count": 6064,
            "max": [
                21.737789154052734,
                80.57874298095703,
                282.8668518066406
            ],
            "min": [
                -125.6983642578125,
                -47.698543548583984,
                206.21719360351562
            ],
            "type": "VEC3"
        },
        {
            "bufferView": 10,
            "componentType": 5126,
            "count": 6064,
            "max": [
                0.9998741149902344,
                0.9994415640830994,
                0.9977906346321106
            ],
            "min": [
                -0.9998900294303894,
                -0.9997835159301758,
                -0.9998506307601929
            ],
            "type": "VEC3"
        },
        {
            "bufferView": 11,
            "componentType": 5125,
            "count": 36357,
            "max": [
                6063
            ],
            "min": [
                0
            ],
            "type": "SCALAR"
        }
    ],
    "materials": [
        {
            "pbrMetallicRoughness": {
                "baseColorFactor": [
                    1,
                    0.7529411764705882,
                    0.796078431372549,
                    0.5
                ],
                "metallicFactor": 0.5,
                "roughnessFactor": 0.5
            },
            "emissiveFactor": [
                0.5,
                0.5,
                0.5
            ],
            "alphaMode": "BLEND",
            "doubleSided": true
        },
        {
            "pbrMetallicRoughness": {
                "baseColorFactor": [
                    1,
                    0.7529411764705882,
                    0.796078431372549,
                    0.5
                ],
                "metallicFactor": 0.5,
                "roughnessFactor": 0.5
            },
            "emissiveFactor": [
                0.5,
                0.5,
                0.5
            ],
            "alphaMode": "BLEND",
            "doubleSided": true
        },
        {
            "pbrMetallicRoughness": {
                "baseColorFactor": [
                    1,
                    0.7529411764705882,
                    0.796078431372549,
                    0.5
                ],
                "metallicFactor": 0.5,
                "roughnessFactor": 0.5
            },
            "emissiveFactor": [
                0.5,
                0.5,
                0.5
            ],
            "alphaMode": "BLEND",
            "doubleSided": true
        },
        {
            "pbrMetallicRoughness": {
                "baseColorFactor": [
                    1,
                    0.7529411764705882,
                    0.796078431372549,
                    0.5
                ],
                "metallicFactor": 0.5,
                "roughnessFactor": 0.5
            },
            "emissiveFactor": [
                0.5,
                0.5,
                0.5
            ],
            "alphaMode": "BLEND",
            "doubleSided": true
        }
    ],
    "meshes": [
        {
            "primitives": [
                {
                    "mode": 4,
                    "attributes": {
                        "POSITION": 0,
                        "NORMAL": 1
                    },
                    "indices": 2,
                    "material": 0
                }
            ]
        },
        {
            "primitives": [
                {
                    "mode": 4,
                    "attributes": {
                        "POSITION": 3,
                        "NORMAL": 4
                    },
                    "indices": 5,
                    "material": 1
                }
            ]
        },
        {
            "primitives": [
                {
                    "mode": 4,
                    "attributes": {
                        "POSITION": 6,
                        "NORMAL": 7
                    },
                    "indices": 8,
                    "material": 2
                }
            ]
        },
        {
            "primitives": [
                {
                    "mode": 4,
                    "attributes": {
                        "POSITION": 9,
                        "NORMAL": 10
                    },
                    "indices": 11,
                    "material": 3
                }
            ]
        }
    ],
    "extensionsUsed": [
        "KHR_lights_punctual"
    ]
}